<svg width="17" height="17" viewBox="0 0 17 17" fill="none" xmlns="http://www.w3.org/2000/svg">
<path d="M9.71424 0C8.16188 0 6.78317 0.730588 5.89376 1.86413C5.75231 1.8441 5.61144 1.82144 5.46452 1.82144C3.92855 1.82144 2.67268 2.96605 2.47051 4.44688C0.912079 4.97752 -0.174178 6.53081 0.02313 8.30914C0.230152 10.1731 1.89831 11.5358 3.77365 11.5358H7.89293V7.28576C7.89293 6.95062 8.16491 6.67862 8.50003 6.67862C8.83515 6.67862 9.10713 6.95062 9.10713 7.28576V11.5358H13.2276C15.0993 11.5358 16.7645 10.1783 16.9757 8.31863C17.1773 6.54394 16.1008 4.99253 14.5509 4.45399C14.3457 1.96044 12.2604 0 9.71424 0ZM9.10713 11.5358H7.89293V14.9273L6.50086 13.5351C6.44429 13.4769 6.37663 13.4307 6.30189 13.3991C6.22714 13.3676 6.14683 13.3513 6.06569 13.3513C5.94492 13.3513 5.8269 13.3874 5.72673 13.4549C5.62655 13.5223 5.54876 13.6181 5.50332 13.73C5.45787 13.8419 5.44683 13.9648 5.4716 14.0831C5.49637 14.2013 5.55583 14.3094 5.64238 14.3937L8.07079 16.8222C8.18465 16.9361 8.33905 17 8.50003 17C8.66102 17 8.81542 16.9361 8.92927 16.8222L11.3577 14.3937C11.4159 14.3377 11.4625 14.2707 11.4945 14.1965C11.5266 14.1224 11.5435 14.0426 11.5443 13.9618C11.5451 13.881 11.5298 13.8009 11.4993 13.7261C11.4688 13.6513 11.4236 13.5834 11.3665 13.5263C11.3094 13.4692 11.2415 13.424 11.1667 13.3935C11.0919 13.3629 11.0118 13.3476 10.931 13.3485C10.8502 13.3493 10.7704 13.3662 10.6963 13.3983C10.6221 13.4303 10.5551 13.4768 10.4992 13.5351L9.10713 14.9273V11.5358Z" fill="#484848"/>
</svg>
