<svg width="30" height="30" viewBox="0 0 30 30" fill="none" xmlns="http://www.w3.org/2000/svg">
<path d="M15 30C23.2842 30 30 23.2842 30 15C30 6.71572 23.2842 0 15 0C6.71572 0 0 6.71572 0 15C0 23.2842 6.71572 30 15 30Z" fill="#1977F3"/>
<path d="M20.8388 19.337L21.5033 15.0001H17.3436V12.1861C17.3436 11.0006 17.9236 9.84258 19.7884 9.84258H21.6805V6.15112C21.6805 6.15112 19.9634 5.85791 18.3223 5.85791C14.8966 5.85791 12.6565 7.93357 12.6565 11.6946V15.0001H8.84688V19.337H12.6565V29.8187C13.4201 29.9389 14.2027 30.0001 15 30.0001C15.7974 30.0001 16.58 29.9368 17.3436 29.8187V19.337H20.8388Z" fill="white"/>
</svg>
