<?xml version="1.0" encoding="iso-8859-1"?>
<!-- Generator: Adobe Illustrator 17.1.0, SVG Export Plug-In . SVG Version: 6.00 Build 0)  -->
<!DOCTYPE svg PUBLIC "-//W3C//DTD SVG 1.1//EN" "http://www.w3.org/Graphics/SVG/1.1/DTD/svg11.dtd">
<svg version="1.1" id="Capa_1" xmlns="http://www.w3.org/2000/svg" xmlns:xlink="http://www.w3.org/1999/xlink" x="0px" y="0px"
	 viewBox="0 0 259.914 259.914" style="enable-background:new 0 0 259.914 259.914;" xml:space="preserve">
<path d="M9.344,96.957v-67.25c0-8.271,7.69-14.75,17.083-14.75h48.5c8.46,0,14.435,5.854,14.738,14.32
	c0.006,0.111,0.01,0.225,0.011,0.338c0.183,0.533,1.216,1.333,1.752,1.342h130.499c8.547,0,14.417,6.413,14.417,15.25v16.75h-54.594
	c-6.229,0-11.835,3.279-14.638,8.573l-12.891,24.474c-0.298,0.562-0.862,0.953-1.375,0.953H9.344z M228.536,152.445
	c-0.23,0-0.43,0.083-0.593,0.248l-30.508,30.844c-0.136,0.137-0.391,0.394-0.177,0.907c0.214,0.513,0.575,0.513,0.77,0.513h13.316
	v59.167c0,0.459,0.56,0.833,1.019,0.833h32.333c0.46,0,0.648-0.374,0.648-0.833v-59.167h13.718c0.194,0,0.556,0,0.77-0.513
	c0.213-0.512-0.041-0.769-0.177-0.906l-30.526-30.846C228.966,152.528,228.767,152.445,228.536,152.445z M196.344,199.886
	c-6-0.544-10.752-4.22-13.024-9.673c-2.467-5.919-1.097-12.686,3.417-17.238l11.194-11.266l19.328-19.558
	c2.997-3.035,7.004-4.707,11.27-4.707c4.26,0,8.259,1.667,11.256,4.694l1.216,1.228l6.344-63.795
	c0.041-0.418-0.074-0.797-0.343-1.094c-0.209-0.23-0.587-0.521-1.204-0.521h-64.049c-0.321,0-1.098,0.057-1.374,0.578
	l-12.891,24.474c-2.926,5.525-8.531,8.948-14.639,8.948H1.556c-0.708,0-1.097,0.32-1.265,0.512
	c-0.237,0.268-0.328,0.591-0.278,0.986L14.25,227.47c0.103,0.819,0.795,1.486,1.543,1.486h180.552V199.886z"/>
<g>
</g>
<g>
</g>
<g>
</g>
<g>
</g>
<g>
</g>
<g>
</g>
<g>
</g>
<g>
</g>
<g>
</g>
<g>
</g>
<g>
</g>
<g>
</g>
<g>
</g>
<g>
</g>
<g>
</g>
</svg>
