<svg width="30" height="30" viewBox="0 0 30 30" fill="none" xmlns="http://www.w3.org/2000/svg">
<path d="M29.9842 15.2807C29.9842 14.0516 29.8821 13.1547 29.6612 12.2246H15.2988V17.7721H23.7292C23.5593 19.1507 22.6415 21.2269 20.6018 22.622L20.5732 22.8077L25.1143 26.2455L25.429 26.2762C28.3184 23.6685 29.9842 19.8317 29.9842 15.2807Z" fill="#4285F4"/>
<path d="M15.2988 29.897C19.429 29.897 22.8963 28.5682 25.429 26.2762L20.6018 22.622C19.3101 23.5023 17.5763 24.1169 15.2988 24.1169C11.2535 24.1169 7.82019 21.5093 6.59629 17.905L6.4169 17.9199L1.69497 21.491L1.63321 21.6587C4.14874 26.5418 9.31582 29.897 15.2988 29.897Z" fill="#34A853"/>
<path d="M6.5963 17.905C6.27336 16.9749 6.08647 15.9782 6.08647 14.9485C6.08647 13.9187 6.27336 12.9221 6.57931 11.992L6.57075 11.7939L1.78964 8.16553L1.63321 8.23824C0.596447 10.2646 0.00154686 12.5401 0.00154686 14.9485C0.00154686 17.3569 0.596447 19.6323 1.63321 21.6587L6.5963 17.905Z" fill="#FBBC05"/>
<path d="M15.2988 5.78004C18.1712 5.78004 20.1089 6.99252 21.2137 8.00576L25.5309 3.8866C22.8795 1.47824 19.429 0 15.2988 0C9.31583 0 4.14874 3.35507 1.63321 8.2382L6.57931 11.992C7.8202 8.38774 11.2536 5.78004 15.2988 5.78004Z" fill="#EB4335"/>
</svg>
