<svg width="26" height="30" viewBox="0 0 26 30" fill="none" xmlns="http://www.w3.org/2000/svg">
<path d="M24.7399 23.379C24.2863 24.4272 23.7493 25.3918 23.1269 26.279C22.2789 27.4882 21.5845 28.3251 21.0493 28.7901C20.2197 29.553 19.3308 29.9436 18.379 29.9659C17.6957 29.9659 16.8717 29.7715 15.9124 29.3771C14.9501 28.9844 14.0656 28.7901 13.257 28.7901C12.4089 28.7901 11.4993 28.9844 10.5263 29.3771C9.55191 29.7715 8.76693 29.977 8.16676 29.9975C7.25402 30.0361 6.34424 29.6343 5.43611 28.7901C4.8565 28.2844 4.13154 27.4177 3.26303 26.1901C2.33121 24.879 1.56514 23.3587 0.964967 21.6254C0.322212 19.7532 0 17.9403 0 16.1852C0 14.1747 0.434434 12.4407 1.30459 10.9876C1.98846 9.82042 2.89824 8.8997 4.03691 8.22382C5.17558 7.54791 6.4059 7.20346 7.73086 7.18142C8.45584 7.18142 9.40653 7.40569 10.588 7.84642C11.7661 8.28861 12.5225 8.51287 12.8542 8.51287C13.1021 8.51287 13.9425 8.25065 15.3671 7.7279C16.7143 7.24311 17.8513 7.04236 18.7827 7.12143C21.3067 7.32513 23.203 8.32009 24.4639 10.1126C22.2067 11.4804 21.09 13.396 21.1123 15.8535C21.1326 17.7677 21.8271 19.3607 23.1919 20.6254C23.8102 21.2125 24.5011 21.6661 25.2695 21.9884C25.103 22.4717 24.9269 22.9346 24.7399 23.379ZM18.9512 0.600169C18.9512 2.10051 18.4031 3.50137 17.3105 4.798C15.9921 6.33942 14.3973 7.23014 12.6679 7.08959C12.6459 6.9096 12.6331 6.72015 12.6331 6.52108C12.6331 5.08077 13.2601 3.53933 14.3736 2.279C14.9295 1.64087 15.6365 1.11028 16.4939 0.687018C17.3494 0.270068 18.1587 0.0394862 18.9197 0C18.942 0.200572 18.9512 0.401156 18.9512 0.600149V0.600169Z" fill="black"/>
</svg>
